<svg width="27" height="30" viewBox="0 0 27 30" fill="none" xmlns="http://www.w3.org/2000/svg">
<path d="M1.5 6.83333L5.5 1.5H21.5L25.5 6.83333M1.5 6.83333V25.5C1.5 26.2072 1.78095 26.8855 2.28105 27.3856C2.78115 27.8857 3.45942 28.1667 4.16667 28.1667H22.8333C23.5406 28.1667 24.2189 27.8857 24.719 27.3856C25.219 26.8855 25.5 26.2072 25.5 25.5V6.83333M1.5 6.83333H25.5M18.8333 12.1667C18.8333 13.5812 18.2714 14.9377 17.2712 15.9379C16.271 16.9381 14.9145 17.5 13.5 17.5C12.0855 17.5 10.729 16.9381 9.72876 15.9379C8.72857 14.9377 8.16667 13.5812 8.16667 12.1667" stroke="#4D483C" stroke-width="3" stroke-linecap="round" stroke-linejoin="round"/>
</svg>
